<?xml version="1.0" encoding="UTF-8"?>
<svg version="1.1" xmlns="http://www.w3.org/2000/svg" width="500" height="500">
<path d="M0 0 C1.875 0.125 1.875 0.125 4 1 C5.84795231 5.36611267 6.24214978 9.23153639 6.375 13.9375 C6.90410223 23.53692609 9.0900039 32.51408094 12.75 41.4375 C14.22184607 45.6322613 14.23599106 48.59483355 14 53 C12.68 53.33 11.36 53.66 10 54 C1.3834938 44.46029671 -0.00338328 32.32657517 -1 20 C-4.65005123 29.87748556 -4.2540139 40.20934637 -3.15625 50.55078125 C-3.1046875 51.35902344 -3.053125 52.16726562 -3 53 C-3.33 53.33 -3.66 53.66 -4 54 C2.44562464 54.75606155 8.86056691 55.09140415 15.34765625 55.17578125 C33.43449679 55.42132555 51.36444806 56.13336018 69.375 57.875 C70.2328006 57.95618073 71.0906012 58.03736145 71.97439575 58.1210022 C88.62163953 59.71843768 104.99941887 62.42348292 121.375 65.8125 C122.52871094 66.03486328 123.68242187 66.25722656 124.87109375 66.48632812 C136.60525488 68.92708656 149.14110178 73.81812476 156.9375 83.375 C158.10496904 86.25933526 158.29175483 88.88530736 158.55078125 91.96484375 C159.08214571 94.3721558 159.99942184 95.55042244 161.5625 97.4375 C164.35255011 100.93715824 164.4994566 103.69504216 164.37109375 108.08203125 C164 110 164 110 162 112 C159.3984375 111.9765625 159.3984375 111.9765625 156.375 111.625 C155.37210938 111.51414062 154.36921875 111.40328125 153.3359375 111.2890625 C152.56507813 111.19367188 151.79421875 111.09828125 151 111 C148.55671546 121.92539576 148.55671546 121.92539576 147 133 C147.6290625 132.97679687 148.258125 132.95359375 148.90625 132.9296875 C155.90807547 132.78205865 161.81849793 133.03694553 167.9375 136.8125 C170.34549158 139.36643046 170.65736254 140.55347024 171 144 C169.49198509 149.83777551 166.63645724 155.2206562 163 160 C162.54238281 160.63679687 162.08476562 161.27359375 161.61328125 161.9296875 C157.40537203 167.32966786 152.95283734 169.84214574 146.671875 172.48046875 C142.05261009 175.10750683 140.77390931 179.18167727 139.25 184.0625 C138.02047447 187.91124468 136.74817033 191.73216173 135.36328125 195.52734375 C130.84895309 207.94825544 126.98240844 220.50405584 124.52587891 233.51025391 C124.36909668 234.31769043 124.21231445 235.12512695 124.05078125 235.95703125 C123.91969971 236.68510986 123.78861816 237.41318848 123.65356445 238.16333008 C123 240 123 240 120 242 C117.72045898 242.37890625 117.72045898 242.37890625 114.99609375 242.5625 C113.44668091 242.67295654 113.44668091 242.67295654 111.8659668 242.78564453 C110.16887573 242.89175049 110.16887573 242.89175049 108.4375 243 C107.24874268 243.07976074 106.05998535 243.15952148 104.83520508 243.24169922 C101.5737097 243.45735265 98.31176588 243.66398055 95.04956055 243.86853027 C92.99287683 244.00045692 90.93685173 244.13995218 88.88085938 244.28222656 C59.62564831 246.3059414 30.84595182 246.24676431 1.5625 244.625 C0.40898041 244.56196686 -0.74453918 244.49893372 -1.93301392 244.43399048 C-36.84303657 242.49290432 -36.84303657 242.49290432 -40.8215332 239.73925781 C-42.3337452 237.50743716 -42.59165054 235.75537205 -42.9453125 233.0859375 C-43.9644075 226.69610678 -45.83458085 220.75378841 -47.875 214.625 C-48.60110147 212.41303632 -49.32637179 210.20079963 -50.05078125 207.98828125 C-50.39318848 206.94623535 -50.7355957 205.90418945 -51.08837891 204.83056641 C-52.15791362 201.50968117 -53.1145158 198.16977157 -54.0625 194.8125 C-54.68313915 192.86678317 -55.3293622 190.92905466 -56 189 C-56.40605469 187.82308594 -56.81210938 186.64617187 -57.23046875 185.43359375 C-61.2730879 175.63361983 -66.0755008 172.59482925 -75.23828125 167.98828125 C-84.10912791 163.48228203 -86.96308688 156.58140118 -90.15234375 147.46484375 C-91.44216069 142.1926427 -91.88363776 138.48223109 -89.0625 133.75 C-85.72206099 130.13923645 -81.64873617 129.2489142 -77 128 C-77.33 124.7 -77.66 121.4 -78 118 C-79.8871875 117.62875 -79.8871875 117.62875 -81.8125 117.25 C-84.45814155 116.56513534 -85.88966277 116.08693236 -88.0625 114.375 C-89.46747398 110.81573258 -88.97777789 107.60196121 -88 104 C-87.01120795 102.32665961 -86.01351664 100.65848177 -85 99 C-85.27617533 97.05925139 -85.27617533 97.05925139 -86 95 C-86.49321198 86.12218442 -83.61081415 79.74271375 -78 73 C-68.68750146 64.54131263 -54.0568956 59.68214838 -42 57 C-42 53.75451859 -42.49181599 50.86885227 -43.05859375 47.671875 C-43.27966797 46.39570313 -43.50074219 45.11953125 -43.72851562 43.8046875 C-44.19159272 41.14736203 -44.66168885 38.49152812 -45.13476562 35.8359375 C-46.65257864 27.01942366 -48.20468912 17.97633028 -48 9 C-46 7 -46 7 -43.61328125 6.625 C-40.17418742 7.11850225 -39.32270112 8.32053193 -37.1875 11 C-36.58292969 11.7425 -35.97835937 12.485 -35.35546875 13.25 C-34.68451172 14.11625 -34.68451172 14.11625 -34 15 C-32.35 13.02 -30.7 11.04 -29 9 C-24.46817493 9.48040548 -22.50325917 11.00349048 -19.375 14.25 C-18.61960937 15.01828125 -17.86421875 15.7865625 -17.0859375 16.578125 C-15.05610371 18.93486086 -13.5101268 21.28754294 -12 24 C-10.40522905 21.60784357 -9.40923856 19.75085485 -8.37890625 17.12890625 C-7.93514648 16.01999023 -7.93514648 16.01999023 -7.48242188 14.88867188 C-6.87100425 13.3426031 -6.26161569 11.79573031 -5.65429688 10.24804688 C-4.13083029 6.45094686 -2.72421359 3.12409815 0 0 Z M-26 20 C-25.52930786 23.67139867 -24.7086556 27.01553435 -23.5 30.5 C-22.29993732 33.98841751 -21.36019578 37.3079933 -21 41 C-21.33 41.66 -21.66 42.32 -22 43 C-23.32 43 -24.64 43 -26 43 C-26.37511719 42.20335937 -26.75023437 41.40671875 -27.13671875 40.5859375 C-29.92838041 34.80572117 -32.50708582 29.62128316 -37 25 C-37.33 25 -37.66 25 -38 25 C-37.46045459 32.08508317 -36.58175027 39.04711881 -35.40234375 46.0546875 C-34.43313154 53.1496973 -34.43313154 53.1496973 -37 57 C-35.9171875 56.84660156 -34.834375 56.69320312 -33.71875 56.53515625 C-28.32662577 55.86114072 -22.92651344 55.65470297 -17.5 55.4375 C-16.48679687 55.39431641 -15.47359375 55.35113281 -14.4296875 55.30664062 C-11.9532321 55.20150808 -9.47669251 55.09936163 -7 55 C-7.8971875 54.28070313 -7.8971875 54.28070313 -8.8125 53.546875 C-11.7784219 50.0936945 -12.71712545 46.5638419 -14 42.25 C-16.60943765 33.64745828 -19.14926049 26.08954623 -26 20 Z M-37.6875 63.125 C-38.75782471 63.34800781 -39.82814941 63.57101563 -40.9309082 63.80078125 C-51.97052106 66.22078873 -63.3371414 69.39358757 -72 77 C-72 77.66 -72 78.32 -72 79 C-72.66 79 -73.32 79 -74 79 C-77.77089394 83.50106704 -80.69306887 88.01484303 -81 94 C-78.8125 93.34375 -78.8125 93.34375 -76.625 92.6875 C-75.71363281 92.41550781 -74.80226562 92.14351562 -73.86328125 91.86328125 C-72.02411612 91.30877171 -70.18785608 90.74448057 -68.35546875 90.16796875 C-67.09669922 89.77544922 -67.09669922 89.77544922 -65.8125 89.375 C-65.05582031 89.13523437 -64.29914063 88.89546875 -63.51953125 88.6484375 C-56.2706415 86.78283176 -48.94499664 86.73025763 -41.5 86.5 C-39.30205092 86.42806712 -37.10413527 86.35510709 -34.90625 86.28125 C-33.67189209 86.24056396 -32.43753418 86.19987793 -31.16577148 86.15795898 C-28.2157467 86.052952 -25.26857236 85.91691648 -22.32055664 85.76586914 C-4.24761081 84.85972232 13.82993605 84.66987855 31.92150879 84.4671669 C34.58757312 84.43721835 37.25362583 84.40636983 39.91967773 84.37533569 C51.18977746 84.24495605 62.45996699 84.12713398 73.73032379 84.02131653 C75.19371929 84.00757249 76.65711357 83.99369695 78.12050629 83.97966003 C85.47637108 83.90913315 92.83203583 83.84993082 100.1882019 83.82376099 C102.02669882 83.81639798 103.86518645 83.80584945 105.7036438 83.79171753 C116.65582491 83.71354929 127.16218637 84.35577006 138 86 C139.33462023 86.19907645 140.66925559 86.3980515 142.00390625 86.59692383 C145.00511464 87.05024881 148.00333825 87.51766061 151 88 C150.16049733 86.90526392 149.30233588 85.8248352 148.4375 84.75 C147.96183594 84.14671875 147.48617187 83.5434375 146.99609375 82.921875 C128.90920118 65.5074892 90.55836528 66.79967608 67.17727661 64.62106323 C63.9855159 64.31870496 60.83869145 63.97488864 57.66894531 63.48144531 C52.7369703 62.83426307 47.82352423 62.65283086 42.85546875 62.46484375 C41.77284256 62.42186661 40.69021637 62.37888947 39.57478333 62.33460999 C37.27771023 62.24458662 34.98056256 62.1564491 32.68334961 62.07006836 C29.2645277 61.94042102 25.84616266 61.80170284 22.42773438 61.66210938 C-7.78353452 59.82620153 -7.78353452 59.82620153 -37.6875 63.125 Z M56.90707397 89.64840698 C50.51237318 89.99717111 44.1541103 90.07934203 37.75 90 C19.22578198 89.89459715 0.70871623 90.34696876 -17.80877686 90.80496216 C-23.06524139 90.93455679 -28.32059805 91.03980649 -33.578125 91.11328125 C-43.57676099 91.30513932 -53.17206071 92.28560624 -63 94.1875 C-63.98677734 94.37151367 -64.97355469 94.55552734 -65.99023438 94.74511719 C-72.29415299 96.10842139 -77.50315626 98.21593419 -82 103 C-83.39349043 106.56921411 -83.39349043 106.56921411 -83 110 C-81.84718445 111.78848043 -81.84718445 111.78848043 -80 113 C-77.71669899 113.36146457 -77.71669899 113.36146457 -75.3125 113.1875 C-74.50425781 113.16042969 -73.69601563 113.13335937 -72.86328125 113.10546875 C-71.94095703 113.05326172 -71.94095703 113.05326172 -71 113 C-71.02320313 112.24074219 -71.04640625 111.48148438 -71.0703125 110.69921875 C-71.09738281 109.20841797 -71.09738281 109.20841797 -71.125 107.6875 C-71.14820313 106.70136719 -71.17140625 105.71523437 -71.1953125 104.69921875 C-71 102 -71 102 -69 99 C-63.59663305 97.24806622 -58.92162615 96.77398879 -53.21484375 96.875 C-51.71395105 96.89214616 -50.21305573 96.9090637 -48.7121582 96.92578125 C-47.93329254 96.93818848 -47.15442688 96.9505957 -46.35195923 96.96337891 C-30.63519519 97.20176151 -15.12431299 96.63814013 0.54296875 95.4375 C9.28763268 94.79181842 17.88149321 94.96171422 26.625 95.5 C27.43839844 95.54769531 28.25179687 95.59539062 29.08984375 95.64453125 C31.0600502 95.76042575 33.03004978 95.87982874 35 96 C35.33 95.34 35.66 94.68 36 94 C40.17601556 92.74048903 44.36209138 92.92411499 48.67578125 93.05078125 C49.79971283 93.07779114 49.79971283 93.07779114 50.9463501 93.10534668 C53.40198586 93.16723705 55.85719071 93.2388339 58.3125 93.3125 C59.15779266 93.3367807 60.00308533 93.3610614 60.87399292 93.38607788 C82.93374851 94.02928076 104.92297006 94.97991023 126.8125 97.9375 C127.98047119 98.09516846 129.14844238 98.25283691 130.35180664 98.4152832 C137.40764283 99.43954233 144.17189677 100.94822234 151 103 C151 104.32 151 105.64 151 107 C153.31 107 155.62 107 158 107 C157.896875 105.741875 157.79375 104.48375 157.6875 103.1875 C157.60048828 102.12595703 157.60048828 102.12595703 157.51171875 101.04296875 C156.86362597 98.4555449 156.11868746 97.6120448 154 96 C135.40072777 87.82097731 113.71164078 88.82225502 93.79638672 88.86962891 C91.13373082 88.87498245 88.47124456 88.86964537 85.80859375 88.86328125 C76.15247596 88.85995033 66.54837441 89.11436984 56.90707397 89.64840698 Z M40 98 C40 100.97 40 103.94 40 107 C64.9757987 107.75346526 89.95349129 108.20132766 114.9375 108.5625 C115.70528904 108.5736018 116.47307808 108.5847036 117.26413345 108.59614182 C126.84270679 108.73431393 136.42132795 108.86884324 146 109 C145.14427281 106.72170646 145.14427281 106.72170646 142.4296875 106.03515625 C109.52993505 97.03291629 73.88004408 97.54859017 40 98 Z M-7.36352539 99.64624023 C-13.27821537 99.91943275 -19.17704057 100.02971456 -25.09765625 99.99609375 C-26.14685745 99.99079147 -26.14685745 99.99079147 -27.21725464 99.98538208 C-30.664911 99.96474987 -34.11122619 99.92891777 -37.55859375 99.875 C-51.62857338 99.45179311 -51.62857338 99.45179311 -65 103 C-64.67 106.3 -64.34 109.6 -64 113 C-42.24453626 113.12887133 -20.50213592 112.97335262 1.25 112.5625 C2.91465805 112.5330278 2.91465805 112.5330278 4.61294556 112.50296021 C7.80978161 112.44539768 11.00644295 112.38191651 14.203125 112.31640625 C15.14659286 112.29968872 16.09006073 112.28297119 17.06211853 112.26574707 C23.08264597 112.13219814 29.01746826 111.68704896 35 111 C34.95206299 110.32888184 34.90412598 109.65776367 34.85473633 108.96630859 C34.74039714 107.3655599 34.62605794 105.7648112 34.51171875 104.1640625 C34.17009472 101.62078662 34.17009472 101.62078662 31 100 C18.40356899 97.86501169 5.33113215 98.99792411 -7.36352539 99.64624023 Z M41 113 C40.9000481 115.08135137 40.87032793 117.16625528 40.875 119.25 C40.87242187 120.38953125 40.86984375 121.5290625 40.8671875 122.703125 C40.98390413 125.60044376 41.33354755 128.18608964 42 131 C42.85440674 130.90150757 42.85440674 130.90150757 43.72607422 130.80102539 C50.85275399 130.02879113 57.96317496 129.69149496 65.125 129.4375 C66.84589844 129.37272461 66.84589844 129.37272461 68.6015625 129.30664062 C71.40095143 129.20166354 74.20041215 129.09950535 77 129 C72.99326043 125.38970063 72.99326043 125.38970063 68 124 C67.56945312 124.4846875 67.13890625 124.969375 66.6953125 125.46875 C64.42724178 127.51733 63.018091 127.43300879 60 127.4375 C58.700625 127.46650391 58.700625 127.46650391 57.375 127.49609375 C55 127 55 127 53.23828125 125.19140625 C51.50418021 122.12253974 51.18751979 119.50036943 51 116 C51.98828125 113.78125 51.98828125 113.78125 53 112 C51.18757948 111.97312721 49.37504767 111.95366285 47.5625 111.9375 C46.04849609 111.92009766 46.04849609 111.92009766 44.50390625 111.90234375 C42.05978933 111.71387324 42.05978933 111.71387324 41 113 Z M88 112 C96.56925481 116.49284912 106.68290224 114.96281614 116 114 C116 113.67 116 113.34 116 113 C109.78829926 112.07840421 103.77390894 111.87822615 97.5 111.9375 C96.12328125 111.94426758 96.12328125 111.94426758 94.71875 111.95117188 C92.47909609 111.96283674 90.23958455 111.97920386 88 112 Z M127 113 C127 113.33 127 113.66 127 114 C128.98 114 130.96 114 133 114 C133 113.67 133 113.34 133 113 C131.02 113 129.04 113 127 113 Z M55 118 C55.75150023 121.27773504 55.75150023 121.27773504 59 123 C61.71147351 122.72885265 63.15262427 121.89825049 65.4375 120.375 C68 119 68 119 70.375 119.0625 C73 120 73 120 76.375 122.125 C80.19366693 124.41454705 82.64645009 124.01064552 87 123 C90.91911281 122.30015843 93.74185807 121.95624713 97.6875 122.625 C100.97796829 123.35873507 100.97796829 123.35873507 103.20703125 121.5234375 C103.79871094 121.02070313 104.39039063 120.51796875 105 120 C87.552366 116.73958101 87.552366 116.73958101 69.875 115.625 C69.1732666 115.62371094 68.4715332 115.62242187 67.74853516 115.62109375 C63.16438511 115.71926975 59.31982035 116.59746093 55 118 Z M-72 118 C-71.34 120.97 -70.68 123.94 -70 127 C-69.01 127 -68.02 127 -67 127 C-66.7525 126.38125 -66.505 125.7625 -66.25 125.125 C-64.71069476 122.5081811 -63.81267749 122.09407989 -61 121 C-53.32877163 119.87904541 -45.82642619 119.93420541 -38.125 120.625 C-26.67537411 121.6144401 -15.31630112 119.6275283 -4 118 C-4 117.67 -4 117.34 -4 117 C-11.98016809 116.97678745 -19.96032197 116.95903956 -27.94051552 116.94818783 C-31.646391 116.94297847 -35.35224332 116.9359163 -39.05810547 116.92456055 C-42.63722332 116.91366232 -46.21631895 116.9077085 -49.79545212 116.90512276 C-51.15812912 116.90328098 -52.52080496 116.89968451 -53.88347244 116.89426994 C-55.7981166 116.88696751 -57.71278333 116.88659116 -59.62744141 116.88647461 C-61.25959091 116.88314369 -61.25959091 116.88314369 -62.92471313 116.87974548 C-66.02703394 117.00105712 -68.9523429 117.42260995 -72 118 Z M15 117 C15 117.33 15 117.66 15 118 C15.68707031 118.12117188 16.37414062 118.24234375 17.08203125 118.3671875 C17.98308594 118.53476563 18.88414062 118.70234375 19.8125 118.875 C21.15248047 119.11863281 21.15248047 119.11863281 22.51953125 119.3671875 C25 120 25 120 28 122 C28.6875 125.125 28.6875 125.125 29 128 C30.98 128 32.96 128 35 128 C35 124.37 35 120.74 35 117 C28.4 117 21.8 117 15 117 Z M105 119 C105 119.33 105 119.66 105 120 C105.61746094 120.03738281 106.23492187 120.07476562 106.87109375 120.11328125 C111.47234418 120.47045594 115.48458689 121.04085292 119.8125 122.6875 C122.95300825 123.84570162 123.69618167 124.08060486 127.0625 123.1875 C127.701875 122.795625 128.34125 122.40375 129 122 C129 121.34 129 120.68 129 120 C124.87758398 118.02467566 121.54790633 117.75859163 117 117.8125 C115.80375 117.81894531 114.6075 117.82539063 113.375 117.83203125 C110.45997311 117.97710782 107.83281939 118.32935147 105 119 Z M134 118 C134 120.31 134 122.62 134 125 C127.71290397 127.88740706 123.42016111 128.07269767 116.71484375 126.55859375 C112.33302796 125.65701151 107.1622296 124.79526501 103.12109375 127.046875 C99.45515403 128.69418493 95.76203605 127.59906469 91.875 127.09375 C88.86747258 126.99567845 87.50447355 127.41062255 85 129 C85 129.33 85 129.66 85 130 C85.80816162 130.01981934 86.61632324 130.03963867 87.44897461 130.06005859 C105.35885246 130.51840966 123.15292297 131.33975059 141 133 C142.36525145 128.47962021 143.23105587 124.73664532 143 120 C140.03 119.34 137.06 118.68 134 118 Z M-27 126 C-27 126.33 -27 126.66 -27 127 C-24.8959118 127.02764495 -22.79171032 127.04667887 -20.6875 127.0625 C-19.51574219 127.07410156 -18.34398437 127.08570313 -17.13671875 127.09765625 C-14.00133699 127.07312762 -10.93131669 126.81800474 -7.8125 126.5 C-1.63713498 125.90070297 4.48794786 125.88814655 10.6875 125.9375 C12.33008789 125.94426758 12.33008789 125.94426758 14.00585938 125.95117188 C16.67063309 125.96280844 19.33528517 125.97915436 22 126 C16.78664149 120.78664149 7.34185722 121.64182417 0.39111328 121.61669922 C-8.94611253 121.8031746 -17.94009744 123.88160942 -27 126 Z M-60 127 C-60 127.33 -60 127.66 -60 128 C-49.77 128 -39.54 128 -29 128 C-29 127.67 -29 127.34 -29 127 C-31.85366354 126.66178803 -34.70780596 126.3293022 -37.5625 126 C-38.36236328 125.90460938 -39.16222656 125.80921875 -39.98632812 125.7109375 C-47.0556191 124.90301853 -53.23278134 124.35913418 -60 127 Z M10 131 C10 131.66 10 132.32 10 133 C11.98 133 13.96 133 16 133 C13.18490007 130.7226499 13.18490007 130.7226499 10 131 Z M-3.18212891 130.45849609 C-6.86476 131.16617897 -10.53622961 131.35529105 -14.2734375 131.5390625 C-15.09677582 131.58100739 -15.92011414 131.62295227 -16.7684021 131.66616821 C-23.52397728 131.98399196 -30.27704271 132.12104083 -37.0390625 132.2109375 C-38.06690857 132.22529846 -39.09475464 132.23965942 -40.15374756 132.25445557 C-44.38810653 132.3116733 -48.62232116 132.36681981 -52.85693359 132.40136719 C-56.00128874 132.42904553 -59.14497038 132.47482416 -62.2890625 132.5234375 C-63.7048912 132.5283168 -63.7048912 132.5283168 -65.14932251 132.53329468 C-71.73768866 132.65470418 -79.11955839 133.11955839 -84 138 C-84.58350505 140.45709375 -84.58350505 140.45709375 -84 143 C-76.92404007 148.97034119 -64.44603201 149.44237475 -55.609375 148.8359375 C-54.06342268 148.61598493 -52.52840208 148.31989811 -51 148 C-51.825 147.443125 -52.65 146.88625 -53.5 146.3125 C-56 144 -56 144 -56.375 141.4375 C-56 139 -56 139 -55 136 C-53.18706911 136.14037521 -51.3746557 136.28744889 -49.5625 136.4375 C-48.04849609 136.55931641 -48.04849609 136.55931641 -46.50390625 136.68359375 C-44 137 -44 137 -43 138 C-43.33348347 142.50202682 -43.58520645 145.00746586 -47 148 C-40.45703993 148.02567853 -33.91409318 148.04300231 -27.37109375 148.05493164 C-25.15233881 148.05991291 -22.93358707 148.06670035 -20.71484375 148.07543945 C-9.17072842 148.11971968 2.30002475 148.11371292 13.8112793 147.17382812 C17.74205798 146.95954787 21.48284948 147.27988185 25.3828125 147.7421875 C29.92161854 148.18929377 34.4431362 148.05918005 39 148 C38.67 143.38 38.34 138.76 38 134 C31.77599753 132.41930096 26.41762359 131.79626592 20 132 C19.34 133.65 18.68 135.3 18 137 C16.741875 137.020625 15.48375 137.04125 14.1875 137.0625 C13.47980469 137.07410156 12.77210938 137.08570313 12.04296875 137.09765625 C10 137 10 137 7 136 C6.5978125 134.7625 6.5978125 134.7625 6.1875 133.5 C5.5996875 132.2625 5.5996875 132.2625 5 131 C2.02571964 130.07466833 -0.12626893 129.81641676 -3.18212891 130.45849609 Z M55 135 C55.66 136.65 56.32 138.3 57 140 C59.832168 140.33448259 59.832168 140.33448259 63 140 C65.37719693 138.12498069 65.37719693 138.12498069 67 136 C66.67 135.34 66.34 134.68 66 134 C60.42169984 133.87530901 60.42169984 133.87530901 55 135 Z M72 135 C71.38640625 136.11375 70.7728125 137.2275 70.140625 138.375 C68.25332641 141.80068483 66.80107172 143.6177921 63 145 C59.45041508 145.09743959 56.18567072 144.81770394 53.1875 142.75 C52 141 52 141 50.6875 138.3125 C50.130625 137.549375 49.57375 136.78625 49 136 C45.92952428 135.80717298 45.92952428 135.80717298 43 136 C43.14033111 137.97956441 43.2874123 139.95865141 43.4375 141.9375 C43.51871094 143.03964844 43.59992188 144.14179688 43.68359375 145.27734375 C43.70418084 147.91109903 43.70418084 147.91109903 45 149 C47.8116338 149.08861992 50.59858255 149.11522355 53.41015625 149.09765625 C54.67320839 149.09553383 54.67320839 149.09553383 55.96177673 149.09336853 C58.66205335 149.08775263 61.36224828 149.07519748 64.0625 149.0625 C65.88867068 149.05748705 67.71484266 149.05292379 69.54101562 149.04882812 C74.02737542 149.03777804 78.51367384 149.02050279 83 149 C82.814375 147.88625 82.62875 146.7725 82.4375 145.625 C82 142 82 142 83 140 C84.916588 139.97287847 86.8332873 139.95354903 88.75 139.9375 C90.35101563 139.92009766 90.35101563 139.92009766 91.984375 139.90234375 C94.53368501 139.98489913 96.57933591 140.25382442 99 141 C98.125 146.75 98.125 146.75 97 149 C100.56927385 150.18975795 103.79946972 150.12478155 107.51171875 150.09765625 C108.23994339 150.0962413 108.96816803 150.09482635 109.71846008 150.09336853 C112.04151539 150.08777659 114.36447388 150.07522562 116.6875 150.0625 C118.26367048 150.05748396 119.83984248 150.05292123 121.41601562 150.04882812 C125.27738098 150.0378098 129.13867408 150.02055074 133 150 C133 149.67 133 149.34 133 149 C131.865625 148.690625 130.73125 148.38125 129.5625 148.0625 C126 147 126 147 125 146 C124.95907063 143.66702567 124.95758277 141.33294775 125 139 C132.26457399 138.51569507 132.26457399 138.51569507 135.5625 140.6875 C137 143 137 143 136.875 145.625 C136 148 136 148 134 150 C137.16691607 149.85929844 140.33346378 149.71148731 143.5 149.5625 C144.386875 149.52318359 145.27375 149.48386719 146.1875 149.44335938 C148.79370048 149.31879832 151.39635122 149.16951886 154 149 C154.78246094 148.94956543 155.56492187 148.89913086 156.37109375 148.84716797 C158.76187206 148.66631436 158.76187206 148.66631436 162 148 C164.22738107 145.31328252 164.22738107 145.31328252 163.875 142.9375 C162.67999747 140.29142297 161.70399603 140.05595001 159 139 C156.45522222 138.56298162 153.97624906 138.21473725 151.4140625 137.9453125 C150.66685944 137.86266144 149.91965637 137.78001038 149.14981079 137.69485474 C140.57590092 136.78721777 131.98442962 136.29512974 123.375 135.875 C122.12854202 135.81146332 122.12854202 135.81146332 120.85690308 135.74664307 C104.56427781 134.92531642 88.3096895 134.76754088 72 135 Z M-52 140 C-52 140.66 -52 141.32 -52 142 C-50.68 142.33 -49.36 142.66 -48 143 C-48 142.01 -48 141.02 -48 140 C-49.32 140 -50.64 140 -52 140 Z M129 142 C129 142.66 129 143.32 129 144 C130.32 144.33 131.64 144.66 133 145 C133 144.34 133 143.68 133 143 C131.68 142.67 130.36 142.34 129 142 Z M86 143 C87.75244247 144.6483633 87.75244247 144.6483633 90 146 C92.20800528 145.78282648 92.20800528 145.78282648 94 145 C92.10244856 142.65026182 92.10244856 142.65026182 88.875 142.875 C87.92625 142.91625 86.9775 142.9575 86 143 Z M-82 150 C-80.96990303 155.99738303 -78.84789629 159.64118487 -73.87109375 163.30078125 C-72.73800781 163.96464844 -71.60492188 164.62851562 -70.4375 165.3125 C-69.86064453 165.65861328 -69.28378906 166.00472656 -68.68945312 166.36132812 C-57.04113719 173.25358426 -41.90671542 169.92329439 -29.3125 166.9375 C-20.22837354 164.79716115 -10.84679712 164.8364531 -1.5625 164.875 C0.17773438 164.87790039 0.17773438 164.87790039 1.953125 164.88085938 C11.66767209 164.92781476 21.36316889 165.25232708 31.0690918 165.64404297 C37.63581883 165.90311637 44.17863911 166.05453705 50.75 166 C65.97464605 165.91227373 81.07922647 166.49742891 96.1875 168.4375 C105.63132665 169.63893579 115.07371129 170.65867218 124.5625 171.4375 C125.78155029 171.55472412 127.00060059 171.67194824 128.2565918 171.79272461 C135.30827494 172.32880021 140.14493752 172.12985563 146 168 C146.93328125 167.35160156 147.8665625 166.70320313 148.828125 166.03515625 C149.62734375 165.38417969 150.4265625 164.73320312 151.25 164.0625 C152.05953125 163.41410156 152.8690625 162.76570312 153.703125 162.09765625 C156.1073524 159.90195878 158.06863864 157.61796918 160 155 C160 154.67 160 154.34 160 154 C158.33343119 153.97242809 156.66672149 153.95335197 155 153.9375 C154.071875 153.92589844 153.14375 153.91429687 152.1875 153.90234375 C148.95820208 153.94000817 148.95820208 153.94000817 145.62890625 154.49609375 C139.49735912 155.3128106 133.30726671 155.14818057 127.13354492 155.13037109 C124.99455228 155.12513954 122.85578198 155.1302693 120.71679688 155.13671875 C111.47531821 155.1412059 102.27095045 154.82114182 93.04046631 154.38565063 C81.59391158 153.860861 70.14358836 153.68921516 58.6875 153.5 C28.32486023 152.97517496 28.32486023 152.97517496 14.88354492 152.21679688 C10.19345524 151.98270729 5.67280294 152.06353694 0.9921875 152.4609375 C-9.31443995 153.28009069 -19.64003707 153.22329018 -29.97387695 153.24023438 C-33.53035116 153.24991251 -37.08623942 153.28100838 -40.64257812 153.3125 C-54.70204598 153.37556503 -68.15434259 152.47014352 -82 150 Z M-30.86532593 172.65792847 C-35.63314193 173.42194868 -40.43951133 173.80420814 -45.25 174.1875 C-46.68859375 174.3102832 -46.68859375 174.3102832 -48.15625 174.43554688 C-50.43708962 174.62941824 -52.7182116 174.81770566 -55 175 C-54.68869141 175.93392578 -54.68869141 175.93392578 -54.37109375 176.88671875 C-48.58072917 194.2578125 -42.79036458 211.62890625 -37 229 C-36.3501413 228.97232544 -35.70028259 228.94465088 -35.0307312 228.9161377 C-20.23152026 228.30141625 -5.44296753 227.89596854 9.3671875 227.71875 C10.1583622 227.70920288 10.9495369 227.69965576 11.76468658 227.68981934 C18.29450089 227.61223354 24.8243956 227.54257916 31.35430908 227.47393799 C37.04615401 227.41385873 42.73794495 227.3503833 48.4296875 227.28125 C49.21104191 227.27184324 49.99239632 227.26243649 50.79742813 227.25274467 C60.8195167 227.12729166 70.82075085 226.86018027 80.83093262 226.33692932 C89.01576079 225.91613146 97.18144442 225.88561727 105.375 225.9375 C106.81640462 225.94254671 108.25781104 225.94710378 109.69921875 225.95117188 C113.13285174 225.96187726 116.56641285 225.97894896 120 226 C120.19118408 225.16380127 120.38236816 224.32760254 120.5793457 223.46606445 C122.05792354 217.02451185 123.56526707 210.59437326 125.1875 204.1875 C125.36474609 203.48302734 125.54199219 202.77855469 125.72460938 202.05273438 C126.1486068 200.36820406 126.57412195 198.68405585 127 197 C125.87464844 197.01160156 124.74929688 197.02320313 123.58984375 197.03515625 C122.0390642 197.04455491 120.4882828 197.05365283 118.9375 197.0625 C118.20466797 197.07087891 117.47183594 197.07925781 116.71679688 197.08789062 C111.89664811 197.10822881 107.1406071 196.88160754 102.33422852 196.51367188 C93.31036824 195.87456198 84.29314737 195.77377437 75.25 195.68359375 C73.46239875 195.66291121 71.67480113 195.64191292 69.88720703 195.62062073 C66.15236701 195.57698337 62.41751119 195.53605207 58.68261719 195.49731445 C53.99578076 195.44864617 49.30902109 195.39491113 44.622262 195.3393383 C26.11537068 195.12093412 7.61079332 194.93098189 -10.89758301 195.02159119 C-22.61292785 195.06216937 -34.30149238 194.59561799 -46 194 C-43.43377475 191.43377475 -42.34957094 191.70266717 -38.77734375 191.5859375 C-37.67841797 191.54726563 -36.57949219 191.50859375 -35.44726562 191.46875 C-34.28904297 191.4378125 -33.13082031 191.406875 -31.9375 191.375 C-30.33358398 191.31699219 -30.33358398 191.31699219 -28.69726562 191.2578125 C0.76211583 190.31565067 30.31025859 191.20861783 59.77508545 191.53643799 C67.25629114 191.61953922 74.73750857 191.70142726 82.21875 191.78125 C83.74864563 191.79761002 83.74864563 191.79761002 85.30944824 191.81430054 C100.20699743 191.97161851 115.10153792 192.06958285 130 192 C130.38349609 191.09878418 130.76699219 190.19756836 131.16210938 189.26904297 C132.07682292 187.11946615 132.99153646 184.96988932 133.90625 182.8203125 C135.12052456 180.19338071 135.12052456 180.19338071 135 178 C127.23803975 176.41745509 119.58624407 175.53018295 111.6875 175 C105.27255691 174.56454189 98.95311319 174.02508452 92.6015625 173.0078125 C82.68241324 171.53830891 72.6974644 171.25529915 62.6875 170.875 C61.63462799 170.83363922 60.58175598 170.79227844 59.49697876 170.74966431 C43.94394129 170.15023055 28.39124475 169.77437322 12.8265686 169.70245361 C10.7690659 169.69265227 8.71157873 169.67829032 6.65414429 169.65887451 C-6.13559483 169.55252536 -18.26156807 170.5140015 -30.86532593 172.65792847 Z M52.8125 231.5 C33.56515215 232.1273805 14.31774243 232.08327978 -4.9375 232.0625 C-5.73240719 232.06164398 -6.52731438 232.06078796 -7.34630966 232.05990601 C-17.23089625 232.04844906 -27.11544665 232.02821909 -37 232 C-36.67 232.99 -36.34 233.98 -36 235 C-25.40462414 237.09700147 -14.75592236 237.88628496 -4 238.625 C-3.0539389 238.69036957 -2.10787781 238.75573914 -1.13314819 238.8230896 C38.52854788 241.50708246 78.38173637 239.89357809 118 237 C118.33 235.02 118.66 233.04 119 231 C85.90157996 230.84256729 85.90157996 230.84256729 52.8125 231.5 Z " fill="#020202" transform="translate(211,125)"/>
<path d="M0 0 C8.08990742 -0.09155826 16.17459718 -0.0599074 24.26416016 0.05029297 C24.92522766 0.05889343 25.58629517 0.0674939 26.26739502 0.07635498 C82.11370532 0.83349844 82.11370532 0.83349844 106.88916016 8.80029297 C107.71037354 9.06414795 108.53158691 9.32800293 109.37768555 9.59985352 C115.58803055 11.67325474 120.95047328 14.18415869 126.26416016 18.05029297 C127.20130859 18.70771484 128.13845703 19.36513672 129.10400391 20.04248047 C146.13815582 32.36319266 159.01257907 44.87984719 162.58512878 66.42941284 C163.2522482 70.69973073 163.62204725 74.93161148 163.83959961 79.24609375 C163.87994733 80.01515108 163.92029505 80.78420841 163.96186543 81.57657051 C164.42547914 91.24885399 164.42844689 100.92367765 164.43212891 110.60498047 C164.43535683 112.64210023 164.43872194 114.67921978 164.44221497 116.71633911 C164.44815615 120.96373022 164.4500602 125.21110114 164.44946289 129.45849609 C164.44938186 133.75183343 164.45629486 138.04506354 164.4699707 142.33837891 C164.75609471 233.53481961 164.75609471 233.53481961 144.14697266 255.28466797 C142.23874461 256.96966933 140.30142147 258.52539678 138.26416016 260.05029297 C137.51263672 260.69869141 136.76111328 261.34708984 135.98681641 262.01513672 C132.81430309 264.38655628 129.50761878 265.99839483 125.88916016 267.55029297 C125.18654053 267.85217529 124.4839209 268.15405762 123.76000977 268.46508789 C105.00754673 276.28999265 85.18898205 277.31597996 65.13916016 278.17529297 C64.19682526 278.21632141 63.25449036 278.25734985 62.28359985 278.29962158 C46.53242879 278.96504198 30.77827966 279.31170642 15.01348877 279.402771 C12.67990086 279.41752662 10.34634253 279.43865307 8.01287842 279.46685791 C-13.87218967 279.70785053 -34.99068268 277.24076707 -55.73583984 270.05029297 C-56.45932617 269.8044043 -57.1828125 269.55851562 -57.92822266 269.30517578 C-75.44414635 263.25394423 -94.43199793 254.73110748 -104.20458984 238.20654297 C-109.74515724 226.78618975 -110.49238163 213.97650094 -111.60986328 201.51342773 C-112.16774338 195.47416106 -112.97155217 189.64601055 -114.25146484 183.71435547 C-115.93899552 175.63909683 -116.52632459 167.70577921 -116.92333984 159.48779297 C-116.9625354 158.7399353 -117.00173096 157.99207764 -117.04211426 157.22155762 C-119.25796527 114.75669246 -119.25796527 114.75669246 -115.73583984 96.05029297 C-115.06096984 92.32257752 -114.39861145 88.59267513 -113.73583984 84.86279297 C-113.55754639 83.88205811 -113.37925293 82.90132324 -113.19555664 81.89086914 C-112.04688918 75.40769404 -111.31441455 68.98573538 -110.79833984 62.42529297 C-109.79159574 50.57633237 -106.16925813 40.42688699 -98.73583984 31.05029297 C-97.94951172 30.01904297 -97.16318359 28.98779297 -96.35302734 27.92529297 C-88.99656453 18.83774179 -80.68307818 14.2977609 -69.94824219 9.94775391 C-68.02472818 9.16748051 -66.12218115 8.33590347 -64.22412109 7.49560547 C-44.02983953 -1.06859424 -21.51313609 0.28961613 0 0 Z M-14.29418945 7.22216797 C-17.56008963 7.42602639 -20.82656347 7.61751345 -24.09326172 7.80810547 C-46.49639068 9.15829238 -71.60626058 11.79500225 -88.73583984 28.05029297 C-91.24103486 30.93746821 -93.49137477 33.95937513 -95.73583984 37.05029297 C-96.41001953 37.84177734 -97.08419922 38.63326172 -97.77880859 39.44873047 C-106.43131715 50.95086759 -106.58030493 68.33671044 -108.22094727 82.03686523 C-108.50286981 84.38478248 -108.84342169 86.70823371 -109.22515869 89.04283142 C-110.67435519 98.17253431 -111.06247577 107.13735089 -111.07177734 116.35888672 C-111.07823503 117.89803683 -111.08496535 119.43718581 -111.09194946 120.97633362 C-111.10382985 124.18583 -111.10764027 127.39521956 -111.10644531 130.60473633 C-111.10628342 133.84422288 -111.12008159 137.08313997 -111.14746094 140.32250977 C-111.29655749 158.22055077 -110.98220152 175.26057312 -107.18682861 192.84384155 C-106.19888031 197.67735422 -105.75565191 202.5868982 -105.23583984 207.48779297 C-103.62668281 226.22029931 -103.62668281 226.22029931 -94.73583984 242.05029297 C-93.92373047 242.88173828 -93.92373047 242.88173828 -93.09521484 243.72998047 C-84.47069666 251.88341153 -74.3091495 257.23712803 -63.10693359 260.90576172 C-60.02883159 261.95081837 -57.18153963 263.18521258 -54.23583984 264.55029297 C-18.6745893 279.50111051 24.70787368 274.86330063 62.2722168 272.31518555 C64.98946836 272.13164108 67.70707901 271.96331403 70.42602539 271.80688477 C86.589778 270.87114113 103.00295389 269.81709936 118.26416016 264.05029297 C119.16134766 263.74220703 120.05853516 263.43412109 120.98291016 263.11669922 C129.17320865 260.14401558 135.35776079 255.42298702 141.26416016 249.05029297 C141.75787109 248.52693359 142.25158203 248.00357422 142.76025391 247.46435547 C154.63502758 234.37545282 156.05806951 216.66049635 157.51416016 199.80029297 C157.64073502 198.40479721 157.64073502 198.40479721 157.76986694 196.98110962 C158.94551595 183.8972108 159.6240821 170.87512971 159.57666016 157.73779297 C159.57297424 156.66881775 159.57297424 156.66881775 159.56921387 155.57824707 C159.52989753 149.276977 159.34820025 143.26220211 158.26416016 137.05029297 C158.16930054 134.37190387 158.12276318 131.72747152 158.13916016 129.05029297 C158.14036865 128.27266602 158.14157715 127.49503906 158.14282227 126.69384766 C158.17638473 121.46636471 158.3871837 116.26373341 158.67553711 111.04467773 C159.34006303 98.97692993 159.17948357 87.10244953 158.26416016 75.05029297 C158.2088916 74.31633301 158.15362305 73.58237305 158.09667969 72.82617188 C156.88071428 58.23114227 152.24551668 46.49955906 141.45166016 36.42529297 C137.12069622 33.19830023 132.73607038 30.07902522 128.26416016 27.05029297 C127.38373047 26.44701172 126.50330078 25.84373047 125.59619141 25.22216797 C107.58426996 13.26620279 86.74837558 8.33015167 65.26416016 9.05029297 C65.74961304 9.88584717 65.74961304 9.88584717 66.24487305 10.73828125 C67.39694626 13.35148683 67.5320871 15.19686744 67.57275391 18.04248047 C67.59789062 18.99509766 67.62302734 19.94771484 67.64892578 20.92919922 C67.68394342 22.91871981 67.71522346 24.90830986 67.74267578 26.89794922 C67.92052615 33.32658931 68.49961079 38.09508502 73.07666016 42.98779297 C75.29301061 44.22532058 75.29301061 44.22532058 78.13916016 44.30029297 C82.2847531 42.64205579 83.84099798 40.48402887 86.13525391 36.72216797 C88.88412659 30.21618557 87.46863182 22.82544608 86.26416016 16.05029297 C88.63916016 16.23779297 88.63916016 16.23779297 91.26416016 17.05029297 C94.58862845 23.35767459 94.25610432 31.2154573 92.50634766 37.97998047 C90.83922532 42.40376179 89.15473067 46.16374065 85.26416016 49.05029297 C80.64355059 50.59049616 76.0895264 50.56603489 71.26416016 50.05029297 C67.63464554 47.97628462 65.79002759 45.93431916 64.26416016 42.05029297 C63.23291016 42.31841797 62.20166016 42.58654297 61.13916016 42.86279297 C57.26416016 43.05029297 57.26416016 43.05029297 54.20166016 41.11279297 C51.32598525 38.37441819 49.09224563 35.20698379 46.78759766 31.98779297 C44.58922715 29.19191663 42.08634987 27.20053275 39.26416016 25.05029297 C38.60416016 25.38029297 37.94416016 25.71029297 37.26416016 26.05029297 C37.33634766 27.00548828 37.40853516 27.96068359 37.48291016 28.94482422 C38.95947266 49.51416016 38.95947266 49.51416016 37.26416016 59.05029297 C35.61416016 59.05029297 33.96416016 59.05029297 32.26416016 59.05029297 C31.46801161 50.07244769 31.0056527 41.09979164 30.65698242 32.09472656 C30.40835029 26.05029999 29.93338065 20.06271928 29.26416016 14.05029297 C33.2778105 13.33675513 35.33118646 13.52575139 38.93212891 15.55029297 C44.28588323 19.3311512 48.78472478 23.32031428 52.82666016 28.48388672 C54.28436148 30.32655426 54.28436148 30.32655426 57.26416016 31.05029297 C61.24962027 26.23452866 60.7063874 20.96933453 60.26416016 15.05029297 C59.96092205 13.37788885 59.63668723 11.70863928 59.26416016 10.05029297 C59.92416016 10.05029297 60.58416016 10.05029297 61.26416016 10.05029297 C61.26416016 9.39029297 61.26416016 8.73029297 61.26416016 8.05029297 C56.30641329 7.75918454 51.34834004 7.47472234 46.38989258 7.19580078 C44.71140851 7.10051775 43.0330176 7.00357584 41.35473633 6.90478516 C22.67375694 5.80755053 4.38616786 6.0482079 -14.29418945 7.22216797 Z " fill="#020202" transform="translate(226.73583984375,109.94970703125)"/>
<path d="M0 0 C1.9375 1.0625 1.9375 1.0625 3 3 C4.07399924 8.96666245 1.97713897 12.25524371 -1.296875 16.984375 C-3 19 -3 19 -5.203125 20.640625 C-5.79609375 21.08921875 -6.3890625 21.5378125 -7 22 C-7 22.66 -7 23.32 -7 24 C-2.71635739 23.52403971 -0.73976076 21.16126242 2 18 C2.515625 16.9275 3.03125 15.855 3.5625 14.75 C5 12 5 12 7.125 11.0625 C8.053125 11.0315625 8.053125 11.0315625 9 11 C10 12 10 12 10.375 14.5625 C9.6000624 21.66609471 4.96794878 26.43429852 -0.25390625 30.96875 C-2 32 -2 32 -6 32 C-6 32.66 -6 33.32 -6 34 C0.27790044 34.64682272 0.27790044 34.64682272 5.75 31.9375 C8.25115617 28.67210167 10.67232844 25.39174999 13 22 C13.99 22.33 14.98 22.66 16 23 C17.11370604 26.73887028 17.58331625 28.77887083 15.87109375 32.36328125 C12.62742272 37.33040657 9.77589899 41.07470034 4 43 C-1.66281112 43.56088796 -6.20060696 43.34841375 -11 40 C-16.98570013 32.23476741 -17.0710366 23.44823157 -16 14 C-13.44577777 5.62215107 -9.53187285 -1.21314745 0 0 Z " fill="#020202" transform="translate(239,130)"/>
<path d="M0 0 C3.1875 -0.1875 3.1875 -0.1875 6 0 C5.67 0.66 5.34 1.32 5 2 C7.35277269 4.72426311 9.62496331 5.8141763 13 7 C10 8 10 8 7 8 C6.67 8.66 6.34 9.32 6 10 C2.87278205 9.75165948 -0.25092917 9.47252658 -3.375 9.1875 C-4.70917969 9.08211914 -4.70917969 9.08211914 -6.0703125 8.97460938 C-7.34648437 8.85375977 -7.34648437 8.85375977 -8.6484375 8.73046875 C-9.43395996 8.66239014 -10.21948242 8.59431152 -11.02880859 8.52416992 C-13 8 -13 8 -15 5 C-15.99 4.34 -16.98 3.68 -18 3 C-16.95199219 3.03480469 -15.90398437 3.06960937 -14.82421875 3.10546875 C-13.44532853 3.13360937 -12.06642098 3.16090924 -10.6875 3.1875 C-9.99720703 3.21263672 -9.30691406 3.23777344 -8.59570312 3.26367188 C-4.58618175 3.40371969 -4.58618175 3.40371969 -1.21875 1.5 C-0.8165625 1.005 -0.414375 0.51 0 0 Z " fill="#050505" transform="translate(295,233)"/>
<path d="M0 0 C1.2065625 0.0309375 1.2065625 0.0309375 2.4375 0.0625 C3.09555006 4.50433789 3.55561829 8.88442781 3.6875 13.375 C3.71328125 14.19613281 3.7390625 15.01726562 3.765625 15.86328125 C3.4375 18.0625 3.4375 18.0625 2.171875 19.91796875 C0.4375 21.0625 0.4375 21.0625 -1.67089844 20.6340332 C-2.29512695 20.44542725 -2.91935547 20.25682129 -3.5625 20.0625 C-3.59138514 16.91668577 -3.60925923 13.77090531 -3.625 10.625 C-3.63337891 9.72716797 -3.64175781 8.82933594 -3.65039062 7.90429688 C-3.65361328 7.05029297 -3.65683594 6.19628906 -3.66015625 5.31640625 C-3.66801147 4.13026733 -3.66801147 4.13026733 -3.67602539 2.92016602 C-3.49546255 -0.03446337 -2.96954506 0.07242793 0 0 Z " fill="#010101" transform="translate(132.5625,160.9375)"/>
<path d="M0 0 C1.65 0.33 3.3 0.66 5 1 C5.19430855 3.6246601 5.38073238 6.24946765 5.5625 8.875 C5.61857422 9.62136719 5.67464844 10.36773437 5.73242188 11.13671875 C6.11328125 16.7734375 6.11328125 16.7734375 5 19 C3.33388095 19.042721 1.66617115 19.04063832 0 19 C-1.98586329 17.01413671 -1.49788221 13.34538317 -1.6875 10.625 C-1.74744141 9.93921875 -1.80738281 9.2534375 -1.86914062 8.546875 C-2.14090397 4.7198515 -2.19102544 3.28653816 0 0 Z " fill="#010101" transform="translate(134,327)"/>
<path d="M0 0 C2.31 0.33 4.62 0.66 7 1 C9.50842897 5.70330431 9.62731121 10.78778188 9 16 C8.34 16.66 7.68 17.32 7 18 C5.68 17.67 4.36 17.34 3 17 C3 13.37 3 9.74 3 6 C1.68 5.34 0.36 4.68 -1 4 C-0.67 2.68 -0.34 1.36 0 0 Z " fill="#020202" transform="translate(363,159)"/>
<path d="M0 0 C1.67542976 0.28604898 3.34385343 0.61781233 5 1 C5.05397335 3.4377963 5.09365616 5.87439685 5.125 8.3125 C5.15013672 9.34793945 5.15013672 9.34793945 5.17578125 10.40429688 C5.21217794 14.17135396 5.14378864 15.78431704 3 19 C1.68 19 0.36 19 -1 19 C-2.21989687 12.90051567 -1.95686566 7.14520393 -1 1 C-0.67 0.67 -0.34 0.34 0 0 Z " fill="#020202" transform="translate(367,325)"/>
<path d="M0 0 C-0.33 0.66 -0.66 1.32 -1 2 C-14.2 2 -27.4 2 -41 2 C-39 0 -39 0 -36.8203125 -0.21118164 C-35.48613281 -0.18592407 -35.48613281 -0.18592407 -34.125 -0.16015625 C-32.64580078 -0.1437207 -32.64580078 -0.1437207 -31.13671875 -0.12695312 C-30.10160156 -0.10568359 -29.06648438 -0.08441406 -28 -0.0625 C-21.29644539 0.053672 -14.77948572 0.02122504 -8.11962891 -0.82177734 C-5.296155 -1.0591807 -2.74583094 -0.65032838 0 0 Z " fill="#0B0B0B" transform="translate(295,277)"/>
<path d="M0 0 C10.89 0 21.78 0 33 0 C33.495 0.99 33.495 0.99 34 2 C30.95869366 2.88361093 28.24071133 3.12861491 25.078125 3.1328125 C23.66273438 3.13474609 23.66273438 3.13474609 22.21875 3.13671875 C21.2390625 3.13285156 20.259375 3.12898438 19.25 3.125 C17.80367187 3.13080078 17.80367187 3.13080078 16.328125 3.13671875 C10.79143616 3.12919607 5.47661217 2.8175985 0 2 C0 1.34 0 0.68 0 0 Z " fill="#0C0C0C" transform="translate(232,368)"/>
<path d="M0 0 C3.1875 -0.1875 3.1875 -0.1875 6 0 C5.67 0.66 5.34 1.32 5 2 C5.66 2.66 6.32 3.32 7 4 C-0.3403695 6.49572563 -7.37186817 6.20189117 -15 5 C-15.99 4.34 -16.98 3.68 -18 3 C-16.95199219 3.03480469 -15.90398437 3.06960937 -14.82421875 3.10546875 C-13.44532853 3.13360937 -12.06642098 3.16090924 -10.6875 3.1875 C-9.99720703 3.21263672 -9.30691406 3.23777344 -8.59570312 3.26367188 C-4.58618175 3.40371969 -4.58618175 3.40371969 -1.21875 1.5 C-0.8165625 1.005 -0.414375 0.51 0 0 Z " fill="#131313" transform="translate(295,233)"/>
</svg>
